<svg id="b2411353-ec69-4c11-8c2d-a72f3583e7d5" data-name="Layer 1" xmlns="http://www.w3.org/2000/svg" width="3.07in" height="1.74in" viewBox="0 0 221 124.95"><title>Clover_logo_es-cleaned</title><path d="M24.15,15.09c-1.8-3.35-3.6-4.95-5.9-4.95a4.52,4.52,0,0,0-1.4.2c-1.65.5-3.5,2.3-3.5,7,0,5.5,2.5,8.65,7.65,8.65a12.75,12.75,0,0,0,6.25-1.6,2.85,2.85,0,0,1,1.4-.45c.7,0,1.8.4,1.8,2.45A6.47,6.47,0,0,1,28.3,31c-1.85,1.75-4.85,3.15-9.65,3.15C10,34.19,3.7,29.44,3.7,18.84,3.7,9.39,9.85,3.29,19,3.29c6.85,0,11.3,2.9,11.3,7.3,0,3.75-2.4,5.65-4.3,5.65C25.1,16.24,24.7,16.09,24.15,15.09Z" transform="translate(-3.3 -2.89)" style="fill:#008071"/><path d="M42.7,26.94v3.65c0,.8,0,1.5,0,1.95,0,.6-.3.9-1,1a18.43,18.43,0,0,1-2.9.2H37.2c-3.1,0-3.8-.65-3.8-2.7V6c0-.8,0-1.5,0-1.95s.3-.9,1-1a18.43,18.43,0,0,1,2.9-.2H38.9c3.1,0,3.8.65,3.8,2.7Z" transform="translate(-3.3 -2.89)" style="fill:#008071"/><path d="M58.75,10.59c6.65,0,11.65,3.8,11.65,11.6a11.46,11.46,0,0,1-3.8,9,13.11,13.11,0,0,1-8.75,2.9c-6.7,0-11.75-3.85-11.75-11.65S51.55,10.59,58.75,10.59Zm2.25,14a24.44,24.44,0,0,0-.25-2.85c-.45-3.1-1.25-5-2.9-5a1.93,1.93,0,0,0-.8.15c-1,.4-1.5,1.55-1.5,3.25a17.19,17.19,0,0,0,.2,2.7c.5,3.25,1.45,5.25,3,5.25a2.85,2.85,0,0,0,.65-.05C60.6,27.79,61,26.49,61,24.59Z" transform="translate(-3.3 -2.89)" style="fill:#008071"/><path d="M84.35,33.74a21.3,21.3,0,0,1-2.7-.2c-2.2-.3-3-1.3-4.05-3.75-1.75-4.15-3.75-10.3-5.15-14.85A12.5,12.5,0,0,1,71.8,12c0-.5.3-.75,1-.85a18.77,18.77,0,0,1,2.7-.15h1c.9,0,2,.05,2.65.1,1.2.1,2,.5,2.25,1.75.8,4.25,1.7,8.75,2.65,12.3h.3c1-3.55,1.9-8,2.8-12.7.2-1,.55-1.2,1.25-1.3.5,0,2.2-.15,3.25-.15h.75c.75,0,1.95.05,2.55.1,1.15.1,1.55.55,1.55,1.5a19.65,19.65,0,0,1-1,3.95A123.88,123.88,0,0,1,89.7,31.94,2.33,2.33,0,0,1,88,33.39a14.9,14.9,0,0,1-3,.35Z" transform="translate(-3.3 -2.89)" style="fill:#008071"/><path d="M118.75,26.59c.6,0,1,.35,1,1.15a5,5,0,0,1-1.3,3.1c-1.7,1.95-4.25,3.25-8.7,3.25-6.7,0-11.7-3.85-11.7-11.5,0-7.45,4.45-12,11.65-12,6.2,0,10.15,3.6,10.15,10.2a13.58,13.58,0,0,1,0,1.4c0,.95-.4,1.25-1.2,1.3-2.55.15-7,.15-11,.1,1,2.4,3.35,3.3,7,3.3C116.15,26.89,118,26.59,118.75,26.59Zm-7-9.5a2.59,2.59,0,0,0-2.25-1.35,2.64,2.64,0,0,0-.6,0c-1.5.35-2,1.95-2,3.8,1.75,0,3.85,0,5.65-.05A6.42,6.42,0,0,0,111.75,17.09Z" transform="translate(-3.3 -2.89)" style="fill:#008071"/><path d="M131.7,14.09h.1c1.55-2.5,3.25-3.5,5.3-3.5,1.8,0,3.3,1.1,3.3,4.35a9.52,9.52,0,0,1-.35,2.7,1.21,1.21,0,0,1-1.3,1.05,5.57,5.57,0,0,1-.85-.1,25.44,25.44,0,0,0-2.8-.2,15.8,15.8,0,0,0-2.85.3v11.9c0,.8.05,1.5.05,1.95,0,.6-.3.9-1,1a18.43,18.43,0,0,1-2.9.2h-1.65c-3.1,0-3.8-.65-3.8-2.7V14.19c0-.8,0-1.5,0-1.95,0-.6.3-.9,1-1a18.43,18.43,0,0,1,2.9-.2h1.4c2.55,0,3.05.4,3.3,1.9Z" transform="translate(-3.3 -2.89)" style="fill:#008071"/><path d="M24,69.59c.6,0,1,.35,1,1.15a5,5,0,0,1-1.3,3.1c-1.7,2-4.25,3.25-8.7,3.25-6.7,0-11.7-3.85-11.7-11.5,0-7.45,4.45-12,11.65-12,6.2,0,10.15,3.6,10.15,10.2a13.58,13.58,0,0,1-.05,1.4c-.05,1-.4,1.25-1.2,1.3-2.55.15-7,.15-11,.1.95,2.4,3.35,3.3,7,3.3C21.4,69.89,23.25,69.59,24,69.59Zm-7-9.5a2.59,2.59,0,0,0-2.25-1.35,2.64,2.64,0,0,0-.6,0c-1.5.35-2,2-2,3.8,1.75,0,3.85,0,5.65-.05A6.42,6.42,0,0,0,17,60.09Z" transform="translate(-3.3 -2.89)" style="fill:#6ecce0"/><path d="M37.35,71.64c1.6,0,2.1-.65,2.1-1.5,0-1.1-1.9-1.6-4-2.15-3.3-.85-7.45-2-7.45-7.1,0-4.55,3.95-7.3,10.15-7.3,3.15,0,8.75.55,8.75,4.35a4,4,0,0,1-2,3.5,3.07,3.07,0,0,1-1.4.45c-.4,0-.7-.2-1.25-.75-1.5-1.5-2.3-2.1-4-2.1-1.15,0-1.7.55-1.7,1.3,0,1.3,2.25,1.75,4.65,2.45,3,.85,6.45,2.25,6.45,6.2,0,4.6-3.35,8.1-10.6,8.1-5.5,0-10.15-1.55-10.15-5.2a5.22,5.22,0,0,1,1.55-3.65,1.72,1.72,0,0,1,1.15-.5,1.25,1.25,0,0,1,.9.4C33.2,70.69,35.35,71.64,37.35,71.64Z" transform="translate(-3.3 -2.89)" style="fill:#6ecce0"/><path d="M67.3,71.64c1.6,0,2.1-.65,2.1-1.5,0-1.1-1.9-1.6-4-2.15-3.3-.85-7.45-2-7.45-7.1,0-4.55,4-7.3,10.15-7.3,3.15,0,8.75.55,8.75,4.35a4,4,0,0,1-2,3.5,3.07,3.07,0,0,1-1.4.45c-.4,0-.7-.2-1.25-.75-1.5-1.5-2.3-2.1-4-2.1-1.15,0-1.7.55-1.7,1.3,0,1.3,2.25,1.75,4.65,2.45,3,.85,6.45,2.25,6.45,6.2,0,4.6-3.35,8.1-10.6,8.1-5.5,0-10.15-1.55-10.15-5.2a5.22,5.22,0,0,1,1.55-3.65,1.72,1.72,0,0,1,1.15-.5,1.25,1.25,0,0,1,.9.4C63.15,70.69,65.3,71.64,67.3,71.64Z" transform="translate(-3.3 -2.89)" style="fill:#6ecce0"/><path d="M93.8,73.79a7.22,7.22,0,0,1-6.45,3.3c-4.35,0-7.1-2.35-7.1-7.8V57.19c0-.8,0-1.5,0-1.95,0-.6.3-.9,1-1a25.57,25.57,0,0,1,2.9-.2h1.65c3.1,0,3.8,1,3.8,3V67.59c0,1.85.6,2.55,1.9,2.55a3.44,3.44,0,0,0,1.8-.45V57.19c0-.8,0-1.5,0-1.95,0-.6.3-.9,1-1a25.57,25.57,0,0,1,2.9-.2h1.65c3.1,0,3.8.75,3.8,2.9V69.59c0,1.45,0,2.85.1,4.1,0,.7,0,1.4,0,1.85,0,.7-.2,1-1,1.1a25.86,25.86,0,0,1-3,.1H96.9c-1.8,0-2.45-.35-2.8-1.5Z" transform="translate(-3.3 -2.89)" style="fill:#6ecce0"/><path d="M123.1,71.64c1.6,0,2.1-.65,2.1-1.5,0-1.1-1.9-1.6-4-2.15-3.3-.85-7.45-2-7.45-7.1,0-4.55,4-7.3,10.15-7.3,3.15,0,8.75.55,8.75,4.35a4,4,0,0,1-1.95,3.5,3.07,3.07,0,0,1-1.4.45c-.4,0-.7-.2-1.25-.75-1.5-1.5-2.3-2.1-3.95-2.1-1.15,0-1.7.55-1.7,1.3,0,1.3,2.25,1.75,4.65,2.45,3.05.85,6.45,2.25,6.45,6.2,0,4.6-3.35,8.1-10.6,8.1-5.5,0-10.15-1.55-10.15-5.2a5.22,5.22,0,0,1,1.55-3.65,1.72,1.72,0,0,1,1.15-.5,1.25,1.25,0,0,1,.9.4C119,70.69,121.1,71.64,123.1,71.64Z" transform="translate(-3.3 -2.89)" style="fill:#6ecce0"/><path d="M148.3,53.59c6.65,0,11.65,3.8,11.65,11.6a11.46,11.46,0,0,1-3.8,9,13.11,13.11,0,0,1-8.75,2.9c-6.7,0-11.75-3.85-11.75-11.65S141.1,53.59,148.3,53.59Zm2.25,14a24.44,24.44,0,0,0-.25-2.85c-.45-3.1-1.25-5-2.9-5a1.93,1.93,0,0,0-.8.15c-1,.4-1.5,1.55-1.5,3.25a17.19,17.19,0,0,0,.2,2.7c.5,3.25,1.45,5.25,3,5.25a2.85,2.85,0,0,0,.65,0C150.15,70.79,150.55,69.49,150.55,67.59Z" transform="translate(-3.3 -2.89)" style="fill:#6ecce0"/><path d="M179.35,69.89c1.7,0,2.65-.3,3.5-.3.65,0,1.05.45,1.05,1.3a4.65,4.65,0,0,1-1,2.85c-1.55,2.1-4.6,3.35-8.3,3.35-7.4,0-12.1-3.9-12.1-11.6s5.2-11.9,11.95-11.9c3.85,0,6.15,1.1,7.55,2.35a4.74,4.74,0,0,1,1.7,3.75,4.38,4.38,0,0,1-4.1,4.5c-.4,0-.7-.25-1-.75-1.35-2.7-2.3-4.1-4.45-4.1a2.44,2.44,0,0,0-1.85.75,4.46,4.46,0,0,0-1,3.2C171.45,67.69,174.05,69.89,179.35,69.89Z" transform="translate(-3.3 -2.89)" style="fill:#6ecce0"/><path d="M191.85,51.94c-3.45,0-4.9-1.65-4.9-4.35s1.75-4.25,5.2-4.25h.15c3.4,0,4.9,1.55,4.9,4.25s-1.8,4.35-5.2,4.35Zm4.6,4.8c0-2.05-.7-2.7-3.8-2.7H191a18.43,18.43,0,0,0-2.9.2c-.7.1-1,.4-1,1,0,.45.05,1.15.05,1.95V74c0,2,.75,2.7,3.85,2.7h1.6a18.43,18.43,0,0,0,2.9-.2c.7-.1,1-.4,1-1s-.05-1.15-.05-2V56.74Z" transform="translate(-3.3 -2.89)" style="fill:#6ecce0"/><path d="M212.65,53.59c6.65,0,11.65,3.8,11.65,11.6a11.46,11.46,0,0,1-3.8,9,13.11,13.11,0,0,1-8.75,2.9c-6.7,0-11.75-3.85-11.75-11.65S205.45,53.59,212.65,53.59Zm2.25,14a24.44,24.44,0,0,0-.25-2.85c-.45-3.1-1.25-5-2.9-5a1.93,1.93,0,0,0-.8.15c-1,.4-1.5,1.55-1.5,3.25a17.19,17.19,0,0,0,.2,2.7c.5,3.25,1.45,5.25,3,5.25a2.85,2.85,0,0,0,.65,0C214.5,70.79,214.9,69.49,214.9,67.59Z" transform="translate(-3.3 -2.89)" style="fill:#6ecce0"/><path d="M24,119.59c.6,0,1,.35,1,1.15a5,5,0,0,1-1.3,3.1c-1.7,2-4.25,3.25-8.7,3.25-6.7,0-11.7-3.85-11.7-11.5,0-7.45,4.45-12,11.65-12,6.2,0,10.15,3.6,10.15,10.2a13.58,13.58,0,0,1-.05,1.4c-.05,1-.4,1.25-1.2,1.3-2.55.15-7,.15-11,.1.95,2.4,3.35,3.3,7,3.3C21.4,119.89,23.25,119.59,24,119.59Zm-7-9.5a2.59,2.59,0,0,0-2.25-1.35,2.64,2.64,0,0,0-.6.05c-1.5.35-2,1.95-2,3.8,1.75,0,3.85,0,5.65,0A6.42,6.42,0,0,0,17,110.09Z" transform="translate(-3.3 -2.89)" style="fill:#6ecce0"/><path d="M37.5,123.59c0,.8,0,1.5,0,2s-.3.9-1,1a18.43,18.43,0,0,1-2.9.2H32c-3.1,0-3.8-.65-3.8-2.7V107.19c0-.8-.05-1.5-.05-2s.3-.9,1-1a18.43,18.43,0,0,1,2.9-.2h1.4c2.55,0,3.1.4,3.35,1.7l.2,1.05a9.88,9.88,0,0,1,7.3-3.2c3.25,0,5.2,1.1,6.05,3.3a17.09,17.09,0,0,1,.7,5.85v10.85c0,.8.05,1.5.05,2s-.3.9-1,1a18.43,18.43,0,0,1-2.9.2H45.55c-3.1,0-3.8-.65-3.8-2.7V113.89c0-2.9-.6-3.65-2.15-3.65a5.41,5.41,0,0,0-2.15.5,5.45,5.45,0,0,1,0,.85Z" transform="translate(-3.3 -2.89)" style="fill:#6ecce0"/><path d="M71.45,121.64c1.6,0,2.1-.65,2.1-1.5,0-1.1-1.9-1.6-4-2.15-3.3-.85-7.45-2-7.45-7.1,0-4.55,3.95-7.3,10.15-7.3,3.15,0,8.75.55,8.75,4.35a4,4,0,0,1-2,3.5,3.07,3.07,0,0,1-1.4.45c-.4,0-.7-.2-1.25-.75-1.5-1.5-2.3-2.1-4-2.1-1.15,0-1.7.55-1.7,1.3,0,1.3,2.25,1.75,4.65,2.45,3,.85,6.45,2.25,6.45,6.2,0,4.6-3.35,8.1-10.6,8.1-5.5,0-10.15-1.55-10.15-5.2a5.22,5.22,0,0,1,1.55-3.65,1.72,1.72,0,0,1,1.15-.5,1.25,1.25,0,0,1,.9.4C67.3,120.69,69.45,121.64,71.45,121.64Z" transform="translate(-3.3 -2.89)" style="fill:#6ecce0"/><path d="M91.1,127.09c-3.9,0-7.3-2.3-7.3-6.75,0-5,3.25-6.7,8.9-6.7a16,16,0,0,1,3.1.25v-.55c0-1.6-1.4-2.35-4.3-2.35a17.38,17.38,0,0,0-4.2.6,5.13,5.13,0,0,1-1.2.25c-.85,0-1.2-.85-1.2-2a5,5,0,0,1,2.1-4.05c1.65-1.3,4.65-2.15,8.1-2.15s6.15.75,7.8,2.55,2.15,3.75,2.15,7.3l0,5.7c0,1.5.55,2.3,1.9,2.45.55,0,.8.35.8,1.15a3.74,3.74,0,0,1-1.45,2.9,7,7,0,0,1-4.55,1.45c-2.85,0-4.55-.9-5.45-2.35A6.06,6.06,0,0,1,91.1,127.09Zm4.7-9.2a8.73,8.73,0,0,0-1.45-.1c-1.6,0-2.6.75-2.6,2.25s1,2.15,2.4,2.15a2.4,2.4,0,0,0,1.65-.6Z" transform="translate(-3.3 -2.89)" style="fill:#6ecce0"/><path d="M119.75,119.94v3.65c0,.8,0,1.5,0,2s-.3.9-1,1a18.43,18.43,0,0,1-2.9.2h-1.65c-3.1,0-3.8-.65-3.8-2.7V99c0-.8,0-1.5,0-2,0-.6.3-.9,1-1a18.43,18.43,0,0,1,2.9-.2H116c3.1,0,3.8.65,3.8,2.7Z" transform="translate(-3.3 -2.89)" style="fill:#6ecce0"/><path d="M137.1,123.79a7.22,7.22,0,0,1-6.45,3.3c-4.35,0-7.1-2.35-7.1-7.8v-12.1c0-.8,0-1.5,0-2s.3-.9,1-1a25.57,25.57,0,0,1,2.9-.2h1.65c3.1,0,3.8.95,3.8,3v10.55c0,1.85.6,2.55,1.9,2.55a3.44,3.44,0,0,0,1.8-.45v-12.5c0-.8-.05-1.5-.05-2s.3-.9,1-1a25.57,25.57,0,0,1,2.9-.2h1.65c3.1,0,3.8.75,3.8,2.9v12.65c0,1.45.05,2.85.1,4.1.05.7.05,1.4.05,1.85,0,.7-.2,1-1,1.1a25.86,25.86,0,0,1-3.05.1H140.2c-1.8,0-2.45-.35-2.8-1.5Z" transform="translate(-3.3 -2.89)" style="fill:#6ecce0"/><path d="M163.3,99c0-.8-.05-1.5-.05-2,0-.6.3-.9,1-1a14.08,14.08,0,0,1,2.6-.2h2.25c3.1,0,3.5.65,3.5,2.7v21c0,1.45.05,2.85.1,4.1.05.7.05,1.4.05,1.85,0,.7-.2,1-1,1.1a25.86,25.86,0,0,1-3.05.1H167c-1.8,0-2.45-.35-2.8-1.5l-.3-1.1c-1.2,1.85-3,3-6.15,3-4.85,0-8.7-4-8.7-11.6,0-7.95,4.3-11.9,9.5-11.9a7.15,7.15,0,0,1,4.8,1.65Zm-1.85,10.45c-2.25,0-3,2.4-3,5.6,0,3.9.9,5.8,3.1,5.8a3.46,3.46,0,0,0,1.75-.45V109.89A3.86,3.86,0,0,0,161.45,109.49Z" transform="translate(-3.3 -2.89)" style="fill:#6ecce0"/><path d="M182,127.84c-3.4,0-4.9-2-4.9-5s1.6-5,5.2-5h.25c3.6,0,4.9,2,4.9,5s-1.5,5-5.2,5Z" transform="translate(-3.3 -2.89)" style="fill:#6ecce0"/></svg>