<svg id="d5edde59-767a-4504-9957-b0e1c034dcd3" data-name="Layer 1" xmlns="http://www.w3.org/2000/svg" width="4.33in" height="1.74in" viewBox="0 0 311.9 124.95"><title>Clover_logo_en-cleaned</title><path d="M24.15,15.09c-1.8-3.35-3.6-4.95-5.9-4.95a4.52,4.52,0,0,0-1.4.2c-1.65.5-3.5,2.3-3.5,7,0,5.5,2.5,8.65,7.65,8.65a12.75,12.75,0,0,0,6.25-1.6,2.85,2.85,0,0,1,1.4-.45c.7,0,1.8.4,1.8,2.45A6.47,6.47,0,0,1,28.3,31c-1.85,1.75-4.85,3.15-9.65,3.15C10,34.19,3.7,29.44,3.7,18.84,3.7,9.39,9.85,3.29,19,3.29c6.85,0,11.3,2.9,11.3,7.3,0,3.75-2.4,5.65-4.3,5.65C25.1,16.24,24.7,16.09,24.15,15.09Z" transform="translate(-3.7 -2.89)" style="fill:#008071"/><path d="M42.7,26.94v3.65c0,.8,0,1.5,0,1.95,0,.6-.3.9-1,1a18.43,18.43,0,0,1-2.9.2H37.2c-3.1,0-3.8-.65-3.8-2.7V6c0-.8,0-1.5,0-1.95s.3-.9,1-1a18.43,18.43,0,0,1,2.9-.2H38.9c3.1,0,3.8.65,3.8,2.7Z" transform="translate(-3.7 -2.89)" style="fill:#008071"/><path d="M58.75,10.59c6.65,0,11.65,3.8,11.65,11.6a11.46,11.46,0,0,1-3.8,9,13.11,13.11,0,0,1-8.75,2.9c-6.7,0-11.75-3.85-11.75-11.65S51.55,10.59,58.75,10.59Zm2.25,14a24.44,24.44,0,0,0-.25-2.85c-.45-3.1-1.25-5-2.9-5a1.93,1.93,0,0,0-.8.15c-1,.4-1.5,1.55-1.5,3.25a17.19,17.19,0,0,0,.2,2.7c.5,3.25,1.45,5.25,3,5.25a2.85,2.85,0,0,0,.65-.05C60.6,27.79,61,26.49,61,24.59Z" transform="translate(-3.7 -2.89)" style="fill:#008071"/><path d="M84.35,33.74a21.3,21.3,0,0,1-2.7-.2c-2.2-.3-3-1.3-4.05-3.75-1.75-4.15-3.75-10.3-5.15-14.85A12.5,12.5,0,0,1,71.8,12c0-.5.3-.75,1-.85a18.77,18.77,0,0,1,2.7-.15h1c.9,0,2,.05,2.65.1,1.2.1,2,.5,2.25,1.75.8,4.25,1.7,8.75,2.65,12.3h.3c1-3.55,1.9-8,2.8-12.7.2-1,.55-1.2,1.25-1.3.5,0,2.2-.15,3.25-.15h.75c.75,0,1.95.05,2.55.1,1.15.1,1.55.55,1.55,1.5a19.65,19.65,0,0,1-1,3.95A123.88,123.88,0,0,1,89.7,31.94,2.33,2.33,0,0,1,88,33.39a14.9,14.9,0,0,1-3,.35Z" transform="translate(-3.7 -2.89)" style="fill:#008071"/><path d="M118.75,26.59c.6,0,1,.35,1,1.15a5,5,0,0,1-1.3,3.1c-1.7,1.95-4.25,3.25-8.7,3.25-6.7,0-11.7-3.85-11.7-11.5,0-7.45,4.45-12,11.65-12,6.2,0,10.15,3.6,10.15,10.2a13.58,13.58,0,0,1,0,1.4c0,.95-.4,1.25-1.2,1.3-2.55.15-7,.15-11,.1,1,2.4,3.35,3.3,7,3.3C116.15,26.89,118,26.59,118.75,26.59Zm-7-9.5a2.59,2.59,0,0,0-2.25-1.35,2.64,2.64,0,0,0-.6,0c-1.5.35-2,1.95-2,3.8,1.75,0,3.85,0,5.65-.05A6.42,6.42,0,0,0,111.75,17.09Z" transform="translate(-3.7 -2.89)" style="fill:#008071"/><path d="M131.7,14.09h.1c1.55-2.5,3.25-3.5,5.3-3.5,1.8,0,3.3,1.1,3.3,4.35a9.52,9.52,0,0,1-.35,2.7,1.21,1.21,0,0,1-1.3,1.05,5.57,5.57,0,0,1-.85-.1,25.44,25.44,0,0,0-2.8-.2,15.8,15.8,0,0,0-2.85.3v11.9c0,.8.05,1.5.05,1.95,0,.6-.3.9-1,1a18.43,18.43,0,0,1-2.9.2h-1.65c-3.1,0-3.8-.65-3.8-2.7V14.19c0-.8,0-1.5,0-1.95,0-.6.3-.9,1-1a18.43,18.43,0,0,1,2.9-.2h1.4c2.55,0,3.05.4,3.3,1.9Z" transform="translate(-3.7 -2.89)" style="fill:#008071"/><path d="M9,51.94c-3.45,0-4.9-1.65-4.9-4.35s1.75-4.25,5.2-4.25H9.4c3.4,0,4.9,1.55,4.9,4.25s-1.8,4.35-5.2,4.35Zm4.6,4.8c0-2.05-.7-2.7-3.8-2.7H8.1a18.43,18.43,0,0,0-2.9.2c-.7.1-1,.4-1,1,0,.45,0,1.15,0,1.95V74c0,2,.75,2.7,3.85,2.7H9.7a18.43,18.43,0,0,0,2.9-.2c.7-.1,1-.4,1-1s0-1.15,0-2V56.74Z" transform="translate(-3.7 -2.89)" style="fill:#6ecce0"/><path d="M26.8,71.64c1.6,0,2.1-.65,2.1-1.5C28.9,69,27,68.54,25,68c-3.3-.85-7.45-2-7.45-7.1,0-4.55,3.95-7.3,10.15-7.3,3.15,0,8.75.55,8.75,4.35a4,4,0,0,1-1.95,3.5,3.07,3.07,0,0,1-1.4.45c-.4,0-.7-.2-1.25-.75-1.5-1.5-2.3-2.1-3.95-2.1-1.15,0-1.7.55-1.7,1.3,0,1.3,2.25,1.75,4.65,2.45,3.05.85,6.45,2.25,6.45,6.2,0,4.6-3.35,8.1-10.6,8.1-5.5,0-10.15-1.55-10.15-5.2a5.22,5.22,0,0,1,1.55-3.65,1.72,1.72,0,0,1,1.15-.5,1.25,1.25,0,0,1,.9.4C22.65,70.69,24.8,71.64,26.8,71.64Z" transform="translate(-3.7 -2.89)" style="fill:#6ecce0"/><path d="M58.7,69h.35c.9-3.7,1.5-7.1,1.9-9.25.35-1.8.6-3.5.8-4.8.1-.55.55-.75,1.1-.8,1-.1,2.15-.1,3.25-.1h.35c.8,0,2,.05,2.6.1,1.35.1,1.85.55,1.85,1.45a8.6,8.6,0,0,1-.3,1.6A142.37,142.37,0,0,1,66,72.59c-3.6,9.85-6.4,14-13.05,14-4.6,0-7.4-2-7.4-5.45,0-1.1.45-1.65,1-1.65a11.79,11.79,0,0,1,1.4.2,15.23,15.23,0,0,0,2.5.2,7.6,7.6,0,0,0,6.6-3.15c-2.35-.4-4-1.5-5.5-5a116.92,116.92,0,0,1-4.5-14,11.91,11.91,0,0,1-.55-2.85c0-.4.35-.65.8-.7.85-.1,2.65-.15,3.5-.15h.6c.9,0,1.9.05,2.5.1,1.2.1,1.85.5,2.05,1.75C56.75,60.54,57.65,65.14,58.7,69Z" transform="translate(-3.7 -2.89)" style="fill:#6ecce0"/><path d="M85,53.59c6.65,0,11.65,3.8,11.65,11.6a11.46,11.46,0,0,1-3.8,9,13.11,13.11,0,0,1-8.75,2.9c-6.7,0-11.75-3.85-11.75-11.65S77.8,53.59,85,53.59Zm2.25,14A24.44,24.44,0,0,0,87,64.74c-.45-3.1-1.25-5-2.9-5a1.93,1.93,0,0,0-.8.15c-1,.4-1.5,1.55-1.5,3.25a17.19,17.19,0,0,0,.2,2.7c.5,3.25,1.45,5.25,3,5.25a2.85,2.85,0,0,0,.65,0C86.85,70.79,87.25,69.49,87.25,67.59Z" transform="translate(-3.7 -2.89)" style="fill:#6ecce0"/><path d="M113.2,73.79a7.22,7.22,0,0,1-6.45,3.3c-4.35,0-7.1-2.35-7.1-7.8V57.19c0-.8-.05-1.5-.05-1.95,0-.6.3-.9,1-1a25.57,25.57,0,0,1,2.9-.2h1.65c3.1,0,3.8,1,3.8,3V67.59c0,1.85.6,2.55,1.9,2.55a3.44,3.44,0,0,0,1.8-.45V57.19c0-.8-.05-1.5-.05-1.95,0-.6.3-.9,1-1a25.57,25.57,0,0,1,2.9-.2h1.65c3.1,0,3.8.75,3.8,2.9V69.59c0,1.45,0,2.85.1,4.1,0,.7,0,1.4,0,1.85,0,.7-.2,1-1,1.1a25.86,25.86,0,0,1-3,.1H116.3c-1.8,0-2.45-.35-2.8-1.5Z" transform="translate(-3.7 -2.89)" style="fill:#6ecce0"/><path d="M134.4,57.09h.1c1.55-2.5,3.25-3.5,5.3-3.5,1.8,0,3.3,1.1,3.3,4.35a9.52,9.52,0,0,1-.35,2.7,1.21,1.21,0,0,1-1.3,1,5.57,5.57,0,0,1-.85-.1,25.44,25.44,0,0,0-2.8-.2,15.8,15.8,0,0,0-2.85.3v11.9c0,.8.05,1.5.05,2s-.3.9-1,1a18.43,18.43,0,0,1-2.9.2h-1.65c-3.1,0-3.8-.65-3.8-2.7V57.19c0-.8-.05-1.5-.05-1.95,0-.6.3-.9,1-1a18.43,18.43,0,0,1,2.9-.2h1.4c2.55,0,3,.4,3.3,1.9Z" transform="translate(-3.7 -2.89)" style="fill:#6ecce0"/><path d="M161.6,55.74l.2,1.1a8.29,8.29,0,0,1,6.65-3.25c4.85,0,8.15,4,8.15,11.2,0,7.5-3.6,12.3-9.25,12.3a8.93,8.93,0,0,1-5-1.3v6.45c0,.8,0,1.5,0,2,0,.6-.3.9-1,1a18.43,18.43,0,0,1-2.9.2H156.8c-3.1,0-3.8-.65-3.8-2.7V57.19c0-.8-.05-1.5-.05-1.95,0-.6.3-.9,1-1a18.43,18.43,0,0,1,2.9-.2h1.4C160.8,54,161.35,54.44,161.6,55.74ZM162.3,71a6,6,0,0,0,2,.4c2.25,0,2.8-2.4,2.8-5.9s-.85-5.25-2.6-5.25a3.7,3.7,0,0,0-2.3.7,8.47,8.47,0,0,1,.05,1.15Z" transform="translate(-3.7 -2.89)" style="fill:#6ecce0"/><path d="M186.3,77.09c-3.9,0-7.3-2.3-7.3-6.75,0-5,3.25-6.7,8.9-6.7a16,16,0,0,1,3.1.25v-.55c0-1.6-1.4-2.35-4.3-2.35a17.38,17.38,0,0,0-4.2.6,5.13,5.13,0,0,1-1.2.25c-.85,0-1.2-.85-1.2-2.05a5,5,0,0,1,2.1-4c1.65-1.3,4.65-2.15,8.1-2.15s6.15.75,7.8,2.55,2.15,3.75,2.15,7.3l.05,5.7c0,1.5.55,2.3,1.9,2.45.55,0,.8.35.8,1.15a3.74,3.74,0,0,1-1.45,2.9A7,7,0,0,1,197,77.09c-2.85,0-4.55-.9-5.45-2.35A6.06,6.06,0,0,1,186.3,77.09Zm4.7-9.2a8.73,8.73,0,0,0-1.45-.1c-1.6,0-2.6.75-2.6,2.25s1.05,2.15,2.4,2.15a2.4,2.4,0,0,0,1.65-.6Z" transform="translate(-3.7 -2.89)" style="fill:#6ecce0"/><path d="M214.15,57.09h.1c1.55-2.5,3.25-3.5,5.3-3.5,1.8,0,3.3,1.1,3.3,4.35a9.52,9.52,0,0,1-.35,2.7,1.21,1.21,0,0,1-1.3,1,5.57,5.57,0,0,1-.85-.1,25.44,25.44,0,0,0-2.8-.2,15.8,15.8,0,0,0-2.85.3v11.9c0,.8.05,1.5.05,2s-.3.9-1,1a18.43,18.43,0,0,1-2.9.2H209.2c-3.1,0-3.8-.65-3.8-2.7V57.19c0-.8-.05-1.5-.05-1.95,0-.6.3-.9,1-1a18.43,18.43,0,0,1,2.9-.2h1.4c2.55,0,3,.4,3.3,1.9Z" transform="translate(-3.7 -2.89)" style="fill:#6ecce0"/><path d="M237.3,65.14c0,2.2,0,4,1,4.8.7.65,1.9.85,3.5.85.45,0,.9-.05,1.4-.05.8,0,1.15.45,1.15,1.25,0,3.25-2.95,5.1-7.5,5.1-6.5,0-8.81-3-8.65-9.15l.14-7.3H225.5c-.75,0-1.11-.4-1.11-1.2a9.6,9.6,0,0,1,.36-3A4.59,4.59,0,0,1,226,54.89l5.75-5a3.33,3.33,0,0,1,2.1-1,14.39,14.39,0,0,1,2.55,0c.55,0,.9.15.9,1v4.5c1.85,0,4.55,0,6.15-.05.65,0,.9.15,1,.85,0,.5,0,1.3,0,1.8a5.6,5.6,0,0,1-.4,2.5,2.32,2.32,0,0,1-2.4,1.2H237.3Z" transform="translate(-3.7 -2.89)" style="fill:#6ecce0"/><path d="M256.7,73.59c0,.8.05,1.5.05,2s-.3.9-1,1a18.43,18.43,0,0,1-2.9.2H251.2c-3.11,0-3.8-.65-3.8-2.7V57.19c0-.8-.06-1.5-.06-1.95,0-.6.31-.9,1-1a18.64,18.64,0,0,1,2.91-.2h1.4c2.55,0,3.1.4,3.35,1.7l.2,1a9.88,9.88,0,0,1,7.3-3.2c3.25,0,5.2,1.1,6.05,3.3a17.09,17.09,0,0,1,.7,5.85V73.59c0,.8.05,1.5.05,2s-.3.9-1,1a18.43,18.43,0,0,1-2.9.2h-1.65c-3.1,0-3.8-.65-3.8-2.7V63.89c0-2.9-.6-3.65-2.15-3.65a5.41,5.41,0,0,0-2.15.5,5.45,5.45,0,0,1,.05.85Z" transform="translate(-3.7 -2.89)" style="fill:#6ecce0"/><path d="M294,69.59c.6,0,1,.35,1,1.15a5,5,0,0,1-1.3,3.1c-1.7,2-4.25,3.25-8.7,3.25-6.7,0-11.7-3.85-11.7-11.5,0-7.45,4.45-12,11.65-12,6.2,0,10.15,3.6,10.15,10.2a13.58,13.58,0,0,1-.05,1.4c-.05,1-.4,1.25-1.2,1.3-2.55.15-7.05.15-11.05.1.95,2.4,3.35,3.3,7,3.3C291.35,69.89,293.2,69.59,294,69.59Zm-7-9.5a2.59,2.59,0,0,0-2.25-1.35,2.64,2.64,0,0,0-.6,0c-1.5.35-2,2-2,3.8,1.75,0,3.85,0,5.65-.05A6.42,6.42,0,0,0,287,60.09Z" transform="translate(-3.7 -2.89)" style="fill:#6ecce0"/><path d="M306.9,57.09h.1c1.55-2.5,3.25-3.5,5.3-3.5,1.8,0,3.3,1.1,3.3,4.35a9.52,9.52,0,0,1-.35,2.7,1.21,1.21,0,0,1-1.3,1,5.57,5.57,0,0,1-.85-.1,25.44,25.44,0,0,0-2.8-.2,15.8,15.8,0,0,0-2.85.3v11.9c0,.8.05,1.5.05,2s-.3.9-1,1a18.43,18.43,0,0,1-2.9.2H302c-3.11,0-3.8-.65-3.8-2.7V57.19c0-.8-.06-1.5-.06-1.95,0-.6.31-.9,1-1A18.64,18.64,0,0,1,302,54h1.4c2.55,0,3.05.4,3.3,1.9Z" transform="translate(-3.7 -2.89)" style="fill:#6ecce0"/><path d="M9,101.94c-3.45,0-4.9-1.65-4.9-4.35s1.75-4.25,5.2-4.25H9.4c3.4,0,4.9,1.55,4.9,4.25s-1.8,4.35-5.2,4.35Zm4.6,4.8c0-2-.7-2.7-3.8-2.7H8.1a18.43,18.43,0,0,0-2.9.2c-.7.1-1,.4-1,1s0,1.15,0,2V124c0,2,.75,2.7,3.85,2.7H9.7a18.43,18.43,0,0,0,2.9-.2c.7-.1,1-.4,1-1s0-1.15,0-2V106.74Z" transform="translate(-3.7 -2.89)" style="fill:#6ecce0"/><path d="M27,123.59c0,.8.05,1.5.05,2s-.3.9-1,1a18.43,18.43,0,0,1-2.9.2H21.45c-3.1,0-3.8-.65-3.8-2.7V107.19c0-.8,0-1.5,0-2s.3-.9,1-1a18.43,18.43,0,0,1,2.9-.2h1.4c2.55,0,3.1.4,3.35,1.7l.2,1.05a9.88,9.88,0,0,1,7.3-3.2c3.25,0,5.2,1.1,6,3.3a17.09,17.09,0,0,1,.7,5.85v10.85c0,.8,0,1.5,0,2s-.3.9-1,1a18.43,18.43,0,0,1-2.9.2H35c-3.1,0-3.8-.65-3.8-2.7V113.89c0-2.9-.6-3.65-2.15-3.65a5.41,5.41,0,0,0-2.15.5,5.45,5.45,0,0,1,.05.85Z" transform="translate(-3.7 -2.89)" style="fill:#6ecce0"/><path d="M61.05,106.29a9.82,9.82,0,0,1,6.8-2.7c3.25,0,5.2,1.1,6.05,3.3a17.09,17.09,0,0,1,.7,5.85v10.85c0,.8.05,1.5.05,2s-.3.9-1,1a18.43,18.43,0,0,1-2.9.2H69.1c-3.1,0-3.8-.65-3.8-2.7V113.89c0-2.9-.6-3.65-2.15-3.65a5,5,0,0,0-2.1.5v12.85c0,.8.05,1.5.05,2s-.3.9-1,1a18.43,18.43,0,0,1-2.9.2H55.55c-3.1,0-3.8-.65-3.8-2.7V99c0-.8,0-1.5,0-2,0-.6.3-.9,1-1a18.43,18.43,0,0,1,2.9-.2h1.65c3.1,0,3.8.65,3.8,2.7Z" transform="translate(-3.7 -2.89)" style="fill:#6ecce0"/><path d="M98.3,119.59c.6,0,1,.35,1,1.15a5,5,0,0,1-1.3,3.1c-1.7,2-4.25,3.25-8.7,3.25-6.7,0-11.7-3.85-11.7-11.5,0-7.45,4.45-12,11.65-12,6.2,0,10.15,3.6,10.15,10.2a13.58,13.58,0,0,1-.05,1.4c0,1-.4,1.25-1.2,1.3-2.55.15-7.05.15-11.05.1,1,2.4,3.35,3.3,7,3.3C95.7,119.89,97.55,119.59,98.3,119.59Zm-7-9.5a2.59,2.59,0,0,0-2.25-1.35,2.64,2.64,0,0,0-.6.05c-1.5.35-2,1.95-2,3.8,1.75,0,3.85,0,5.65,0A6.42,6.42,0,0,0,91.3,110.09Z" transform="translate(-3.7 -2.89)" style="fill:#6ecce0"/><path d="M109.05,127.09c-3.9,0-7.3-2.3-7.3-6.75,0-5,3.25-6.7,8.9-6.7a16,16,0,0,1,3.1.25v-.55c0-1.6-1.4-2.35-4.3-2.35a17.38,17.38,0,0,0-4.2.6,5.13,5.13,0,0,1-1.2.25c-.85,0-1.2-.85-1.2-2a5,5,0,0,1,2.1-4.05c1.65-1.3,4.65-2.15,8.1-2.15s6.15.75,7.8,2.55,2.15,3.75,2.15,7.3l0,5.7c0,1.5.55,2.3,1.9,2.45.55,0,.8.35.8,1.15a3.74,3.74,0,0,1-1.45,2.9,7,7,0,0,1-4.55,1.45c-2.85,0-4.55-.9-5.45-2.35A6.06,6.06,0,0,1,109.05,127.09Zm4.7-9.2a8.73,8.73,0,0,0-1.45-.1c-1.6,0-2.6.75-2.6,2.25s1,2.15,2.4,2.15a2.4,2.4,0,0,0,1.65-.6Z" transform="translate(-3.7 -2.89)" style="fill:#6ecce0"/><path d="M137.7,119.94v3.65c0,.8.05,1.5.05,2s-.3.9-1,1a18.43,18.43,0,0,1-2.9.2H132.2c-3.1,0-3.8-.65-3.8-2.7V99c0-.8-.05-1.5-.05-2,0-.6.3-.9,1-1a18.43,18.43,0,0,1,2.9-.2h1.65c3.1,0,3.8.65,3.8,2.7Z" transform="translate(-3.7 -2.89)" style="fill:#6ecce0"/><path d="M152.8,115.14c0,2.2,0,4,1,4.8.7.65,1.9.85,3.5.85.45,0,.9-.05,1.4-.05.8,0,1.15.45,1.15,1.25,0,3.25-2.95,5.1-7.5,5.1-6.5,0-8.8-3-8.65-9.15l.15-7.3H141c-.75,0-1.1-.4-1.1-1.2a9.64,9.64,0,0,1,.35-3,4.72,4.72,0,0,1,1.25-1.55l5.75-5a3.33,3.33,0,0,1,2.1-1,14.39,14.39,0,0,1,2.55,0c.55,0,.9.15.9,1v4.5c1.85,0,4.55,0,6.15,0,.65,0,.9.15,1,.85,0,.5,0,1.3,0,1.8a5.6,5.6,0,0,1-.4,2.5,2.32,2.32,0,0,1-2.4,1.2H152.8Z" transform="translate(-3.7 -2.89)" style="fill:#6ecce0"/><path d="M172.2,106.29a9.82,9.82,0,0,1,6.8-2.7c3.25,0,5.2,1.1,6.05,3.3a17.09,17.09,0,0,1,.7,5.85v10.85c0,.8.05,1.5.05,2s-.3.9-1,1a18.43,18.43,0,0,1-2.9.2h-1.65c-3.1,0-3.8-.65-3.8-2.7V113.89c0-2.9-.6-3.65-2.15-3.65a5,5,0,0,0-2.1.5v12.85c0,.8.05,1.5.05,2s-.3.9-1,1a18.43,18.43,0,0,1-2.9.2H166.7c-3.1,0-3.8-.65-3.8-2.7V99c0-.8-.05-1.5-.05-2,0-.6.3-.9,1-1a18.43,18.43,0,0,1,2.9-.2h1.65c3.1,0,3.8.65,3.8,2.7Z" transform="translate(-3.7 -2.89)" style="fill:#6ecce0"/><path d="M195,127.84c-3.4,0-4.9-2-4.9-5s1.6-5,5.2-5h.25c3.6,0,4.9,2,4.9,5s-1.5,5-5.2,5Z" transform="translate(-3.7 -2.89)" style="fill:#6ecce0"/></svg>