<?xml version="1.0" encoding="utf-8"?>
<!-- Generator: Adobe Illustrator 22.1.0, SVG Export Plug-In . SVG Version: 6.00 Build 0)  -->
<svg version="1.1" id="Layer_1" xmlns="http://www.w3.org/2000/svg" xmlns:xlink="http://www.w3.org/1999/xlink" x="0px" y="0px"
	 viewBox="0 0 317.5 130" style="enable-background:new 0 0 317.5 130;" xml:space="preserve">
<style type="text/css">
	.st0{fill:#008071;}
	.st1{fill:#6ECCE0;}
</style>
<g>
	<path class="st0" d="M24.2,15.1c-1.8-3.4-3.6-5-5.9-5c-0.5,0-1,0.1-1.4,0.2c-1.7,0.5-3.5,2.3-3.5,7c0,5.5,2.5,8.7,7.7,8.7
		c2.3,0,4.6-0.6,6.3-1.6c0.6-0.3,1-0.5,1.4-0.5c0.7,0,1.8,0.4,1.8,2.5c0,1.8-0.9,3.5-2.1,4.7c-1.9,1.7-4.9,3.2-9.7,3.2
		c-8.7,0-15-4.8-15-15.4C3.7,9.4,9.9,3.3,19,3.3c6.9,0,11.3,2.9,11.3,7.3c0,3.8-2.4,5.7-4.3,5.7C25.1,16.2,24.7,16.1,24.2,15.1z"/>
	<path class="st0" d="M42.7,26.9c0,1.5,0,2.5,0,3.6c0,0.8,0,1.5,0,2c0,0.6-0.3,0.9-1,1c-0.9,0.2-2,0.2-2.9,0.2h-1.6
		c-3.1,0-3.8-0.6-3.8-2.7V9.7c0-1.6,0-2.6,0-3.7c0-0.8,0-1.5,0-2c0-0.6,0.3-0.9,1-1c0.9-0.1,2-0.2,2.9-0.2h1.7
		c3.1,0,3.8,0.7,3.8,2.7V26.9z"/>
	<path class="st0" d="M58.8,10.6c6.7,0,11.7,3.8,11.7,11.6c0,3.9-1.5,7-3.8,9c-2.2,2-5.3,2.9-8.8,2.9c-6.7,0-11.8-3.9-11.8-11.7
		C46.1,14.8,51.5,10.6,58.8,10.6z M61,24.6c0-0.7-0.1-1.7-0.2-2.9c-0.5-3.1-1.3-5-2.9-5c-0.1,0-0.5,0-0.8,0.1
		c-1,0.4-1.5,1.6-1.5,3.3c0,0.8,0.1,1.8,0.2,2.7c0.5,3.3,1.5,5.3,3.1,5.3c0.2,0,0.4,0,0.6,0C60.6,27.8,61,26.5,61,24.6z"/>
	<path class="st0" d="M84.4,33.7c-1,0-2-0.1-2.7-0.2c-2.2-0.3-3-1.3-4.1-3.7c-1.8-4.2-3.8-10.3-5.2-14.9c-0.4-1.3-0.6-2.4-0.6-2.9
		c0-0.5,0.3-0.8,1-0.9c0.8-0.1,1.5-0.1,2.7-0.1h1c0.9,0,2.1,0,2.7,0.1c1.2,0.1,2,0.5,2.2,1.8c0.8,4.3,1.7,8.8,2.7,12.3h0.3
		c1-3.6,1.9-8,2.8-12.7c0.2-0.9,0.5-1.2,1.2-1.3c0.5-0.1,2.2-0.1,3.2-0.1h0.8c0.8,0,2,0,2.6,0.1c1.2,0.1,1.6,0.6,1.6,1.5
		c0,0.7-0.4,2.1-1,4c-1.1,3.8-3.3,9.9-5.9,15.4c-0.4,0.9-0.9,1.3-1.8,1.5c-0.6,0.1-2,0.4-3,0.4H84.4z"/>
	<path class="st0" d="M118.8,26.6c0.6,0,1,0.4,1,1.1c0,1.2-0.6,2.4-1.3,3.1c-1.7,2-4.2,3.3-8.7,3.3C103,34.1,98,30.2,98,22.6
		c0-7.5,4.5-12,11.7-12c6.2,0,10.2,3.6,10.2,10.2c0,0.4,0,0.9-0.1,1.4c0,1-0.4,1.2-1.2,1.3c-2.6,0.1-7.1,0.1-11.1,0.1
		c0.9,2.4,3.4,3.3,7,3.3C116.2,26.9,118,26.6,118.8,26.6z M111.8,17.1c-0.6-0.9-1.4-1.4-2.2-1.4c-0.2,0-0.4,0-0.6,0
		c-1.5,0.4-2,2-2,3.8c1.8,0,3.9,0,5.7,0C112.5,18.6,112.2,17.7,111.8,17.1z"/>
	<path class="st0" d="M131.7,14.1h0.1c1.6-2.5,3.2-3.5,5.3-3.5c1.8,0,3.3,1.1,3.3,4.4c0,0.9-0.1,1.9-0.4,2.7
		c-0.2,0.9-0.7,1.1-1.3,1.1c-0.2,0-0.5-0.1-0.9-0.1c-0.7-0.1-2-0.2-2.8-0.2c-0.8,0-1.8,0.1-2.9,0.3v11.9c0,0.8,0,1.5,0,2
		c0,0.6-0.3,0.9-1,1c-0.9,0.2-2,0.2-2.9,0.2h-1.6c-3.1,0-3.8-0.6-3.8-2.7V14.2c0-0.8,0-1.5,0-2c0-0.6,0.3-0.9,1-1
		c0.9-0.1,2-0.2,2.9-0.2h1.4c2.5,0,3,0.4,3.3,1.9L131.7,14.1z"/>
	<path class="st1" d="M24,69.6c0.6,0,1,0.4,1,1.1c0,1.2-0.6,2.4-1.3,3.1c-1.7,2-4.2,3.3-8.7,3.3c-6.7,0-11.7-3.9-11.7-11.5
		c0-7.5,4.5-12,11.7-12c6.2,0,10.2,3.6,10.2,10.2c0,0.4,0,0.9-0.1,1.4c0,1-0.4,1.2-1.2,1.3c-2.6,0.1-7.1,0.1-11.1,0.1
		c0.9,2.4,3.4,3.3,7,3.3C21.4,69.9,23.3,69.6,24,69.6z M17,60.1c-0.6-0.9-1.4-1.4-2.2-1.4c-0.2,0-0.4,0-0.6,0c-1.5,0.4-2,2-2,3.8
		c1.8,0,3.9,0,5.7,0C17.7,61.6,17.4,60.7,17,60.1z"/>
	<path class="st1" d="M37.4,71.6c1.6,0,2.1-0.7,2.1-1.5c0-1.1-1.9-1.6-4-2.1c-3.3-0.9-7.5-2-7.5-7.1c0-4.6,4-7.3,10.2-7.3
		c3.2,0,8.8,0.5,8.8,4.4c0,1.4-0.6,2.7-1.9,3.5c-0.4,0.2-1,0.4-1.4,0.4s-0.7-0.2-1.2-0.8c-1.5-1.5-2.3-2.1-4-2.1
		c-1.1,0-1.7,0.6-1.7,1.3c0,1.3,2.2,1.8,4.7,2.5c3.1,0.9,6.5,2.2,6.5,6.2c0,4.6-3.4,8.1-10.6,8.1c-5.5,0-10.2-1.6-10.2-5.2
		c0-1.5,0.6-2.8,1.5-3.7c0.3-0.3,0.8-0.5,1.2-0.5c0.3,0,0.6,0.1,0.9,0.4C33.2,70.7,35.4,71.6,37.4,71.6z"/>
	<path class="st1" d="M67.3,71.6c1.6,0,2.1-0.7,2.1-1.5c0-1.1-1.9-1.6-4-2.1c-3.3-0.9-7.5-2-7.5-7.1c0-4.6,4-7.3,10.2-7.3
		c3.2,0,8.8,0.5,8.8,4.4c0,1.4-0.6,2.7-1.9,3.5c-0.4,0.2-1,0.4-1.4,0.4s-0.7-0.2-1.2-0.8c-1.5-1.5-2.3-2.1-4-2.1
		c-1.1,0-1.7,0.6-1.7,1.3c0,1.3,2.2,1.8,4.7,2.5c3.1,0.9,6.5,2.2,6.5,6.2c0,4.6-3.4,8.1-10.6,8.1c-5.5,0-10.2-1.6-10.2-5.2
		c0-1.5,0.6-2.8,1.5-3.7c0.3-0.3,0.8-0.5,1.2-0.5c0.3,0,0.6,0.1,0.9,0.4C63.1,70.7,65.3,71.6,67.3,71.6z"/>
	<path class="st1" d="M93.8,73.8c-1.4,2.2-3.6,3.3-6.5,3.3c-4.4,0-7.1-2.4-7.1-7.8V57.2c0-0.8-0.1-1.5-0.1-2c0-0.6,0.3-0.9,1-1
		c0.8-0.1,2-0.2,2.9-0.2h1.6c3.1,0,3.8,0.9,3.8,3v10.6c0,1.9,0.6,2.5,1.9,2.5c0.9,0,1.5-0.2,1.8-0.4V57.2c0-0.8,0-1.5,0-2
		c0-0.6,0.3-0.9,1-1c0.8-0.1,2-0.2,2.9-0.2h1.6c3.1,0,3.8,0.8,3.8,2.9v10c0,1.8,0,2.7,0,2.7c0,1.5,0,2.9,0.1,4.1c0,0.7,0,1.4,0,1.9
		c0,0.7-0.2,1-1,1.1c-0.7,0.1-1.8,0.1-3.1,0.1h-1.8c-1.8,0-2.5-0.4-2.8-1.5L93.8,73.8z"/>
	<path class="st1" d="M123.1,71.6c1.6,0,2.1-0.7,2.1-1.5c0-1.1-1.9-1.6-4-2.1c-3.3-0.9-7.5-2-7.5-7.1c0-4.6,4-7.3,10.2-7.3
		c3.2,0,8.8,0.5,8.8,4.4c0,1.4-0.6,2.7-1.9,3.5c-0.4,0.2-1,0.4-1.4,0.4s-0.7-0.2-1.2-0.8c-1.5-1.5-2.3-2.1-4-2.1
		c-1.1,0-1.7,0.6-1.7,1.3c0,1.3,2.2,1.8,4.7,2.5c3.1,0.9,6.5,2.2,6.5,6.2c0,4.6-3.4,8.1-10.6,8.1c-5.5,0-10.2-1.6-10.2-5.2
		c0-1.5,0.6-2.8,1.5-3.7c0.3-0.3,0.8-0.5,1.2-0.5c0.3,0,0.6,0.1,0.9,0.4C118.9,70.7,121.1,71.6,123.1,71.6z"/>
	<path class="st1" d="M148.3,53.6c6.7,0,11.7,3.8,11.7,11.6c0,3.9-1.5,7-3.8,9c-2.2,2-5.3,2.9-8.8,2.9c-6.7,0-11.8-3.9-11.8-11.7
		C135.6,57.8,141.1,53.6,148.3,53.6z M150.5,67.6c0-0.7-0.1-1.7-0.2-2.9c-0.5-3.1-1.3-5-2.9-5c-0.1,0-0.5,0-0.8,0.1
		c-1,0.4-1.5,1.6-1.5,3.3c0,0.8,0.1,1.8,0.2,2.7c0.5,3.3,1.5,5.3,3.1,5.3c0.2,0,0.4,0,0.6,0C150.1,70.8,150.5,69.5,150.5,67.6z"/>
	<path class="st1" d="M179.3,69.9c1.7,0,2.6-0.3,3.5-0.3c0.6,0,1,0.5,1,1.3c0,1.2-0.3,2-1,2.9c-1.5,2.1-4.6,3.4-8.3,3.4
		c-7.4,0-12.1-3.9-12.1-11.6c0-7.6,5.2-11.9,12-11.9c3.8,0,6.2,1.1,7.5,2.4c1.2,1.1,1.7,2.2,1.7,3.8c0,2.7-2.1,4.5-4.1,4.5
		c-0.4,0-0.7-0.2-1-0.8c-1.4-2.7-2.3-4.1-4.5-4.1c-0.8,0-1.5,0.3-1.9,0.8c-0.8,0.8-1,1.9-1,3.2C171.4,67.7,174,69.9,179.3,69.9z"/>
	<path class="st1" d="M191.8,51.9c-3.5,0-4.9-1.6-4.9-4.4s1.8-4.2,5.2-4.2h0.2c3.4,0,4.9,1.5,4.9,4.2s-1.8,4.4-5.2,4.4H191.8z
		 M196.4,56.7c0-2.1-0.7-2.7-3.8-2.7H191c-0.9,0-2.1,0-2.9,0.2c-0.7,0.1-1,0.4-1,1c0,0.5,0,1.2,0,2c0,7.9,0,15.3,0,16.9
		c0,2.1,0.8,2.7,3.9,2.7h1.6c0.9,0,2.1,0,2.9-0.2c0.7-0.1,1-0.4,1-1c0-0.4,0-1.1,0-2c0-1.1,0-2.1,0-3.6V56.7z"/>
	<path class="st1" d="M212.6,53.6c6.7,0,11.7,3.8,11.7,11.6c0,3.9-1.5,7-3.8,9c-2.3,2-5.3,2.9-8.8,2.9c-6.7,0-11.8-3.9-11.8-11.7
		C200,57.8,205.4,53.6,212.6,53.6z M214.9,67.6c0-0.7-0.1-1.7-0.2-2.9c-0.5-3.1-1.2-5-2.9-5c-0.2,0-0.5,0-0.8,0.1
		c-1,0.4-1.5,1.6-1.5,3.3c0,0.8,0,1.8,0.2,2.7c0.5,3.3,1.5,5.3,3.1,5.3c0.2,0,0.5,0,0.7,0C214.5,70.8,214.9,69.5,214.9,67.6z"/>
	<path class="st1" d="M24,119.6c0.6,0,1,0.3,1,1.2c0,1.2-0.6,2.3-1.3,3.1c-1.7,2-4.2,3.2-8.7,3.2c-6.7,0-11.7-3.8-11.7-11.5
		c0-7.5,4.5-12,11.7-12c6.2,0,10.2,3.6,10.2,10.2c0,0.5,0,0.9-0.1,1.4c0,1-0.4,1.2-1.2,1.3c-2.6,0.2-7.1,0.2-11.1,0.1
		c0.9,2.4,3.4,3.3,7,3.3C21.4,119.9,23.3,119.6,24,119.6z M17,110.1c-0.6-0.9-1.4-1.3-2.2-1.3c-0.2,0-0.4,0-0.6,0
		c-1.5,0.3-2,2-2,3.8c1.8,0,3.9,0,5.7-0.1C17.7,111.6,17.4,110.7,17,110.1z"/>
	<path class="st1" d="M37.5,123.6c0,0.8,0,1.5,0,2c0,0.6-0.3,0.9-1,1c-0.9,0.2-2,0.2-2.9,0.2H32c-3.1,0-3.8-0.7-3.8-2.7v-16.9
		c0-0.8,0-1.5,0-2c0-0.6,0.3-0.9,1-1c0.9-0.2,2-0.2,2.9-0.2h1.4c2.5,0,3.1,0.4,3.4,1.7l0.2,1c1.9-2,4.5-3.2,7.3-3.2
		c3.2,0,5.2,1.1,6.1,3.3c0.5,1.3,0.7,3.2,0.7,5.9v10.9c0,0.8,0,1.5,0,2c0,0.6-0.3,0.9-1,1c-0.9,0.2-2,0.2-2.9,0.2h-1.6
		c-3.1,0-3.8-0.7-3.8-2.7v-10.2c0-2.9-0.6-3.7-2.1-3.7c-0.8,0-1.5,0.2-2.2,0.5c0.1,0.3,0.1,0.6,0.1,0.8V123.6z"/>
	<path class="st1" d="M71.5,121.6c1.6,0,2.1-0.6,2.1-1.5c0-1.1-1.9-1.6-4-2.2c-3.3-0.8-7.5-2-7.5-7.1c0-4.6,4-7.3,10.2-7.3
		c3.2,0,8.8,0.5,8.8,4.4c0,1.4-0.6,2.7-1.9,3.5c-0.4,0.2-1,0.5-1.4,0.5s-0.7-0.2-1.2-0.8c-1.5-1.5-2.3-2.1-4-2.1
		c-1.1,0-1.7,0.5-1.7,1.3c0,1.3,2.2,1.8,4.7,2.5c3.1,0.9,6.5,2.2,6.5,6.2c0,4.6-3.4,8.1-10.6,8.1c-5.5,0-10.2-1.5-10.2-5.2
		c0-1.5,0.6-2.8,1.5-3.7c0.3-0.3,0.8-0.5,1.2-0.5c0.3,0,0.6,0.2,0.9,0.4C67.3,120.7,69.5,121.6,71.5,121.6z"/>
	<path class="st1" d="M91.1,127.1c-3.9,0-7.3-2.3-7.3-6.8c0-5,3.2-6.7,8.9-6.7c1.3,0,2.4,0.1,3.1,0.2v-0.5c0-1.6-1.4-2.4-4.3-2.4
		c-1.3,0-3,0.2-4.2,0.6c-0.4,0.1-0.8,0.2-1.2,0.2c-0.9,0-1.2-0.8-1.2-2c0-1.6,0.7-3,2.1-4c1.6-1.3,4.7-2.2,8.1-2.2
		c3.5,0,6.2,0.8,7.8,2.5c1.6,1.7,2.2,3.8,2.2,7.3l0,5.7c0,1.5,0.5,2.3,1.9,2.5c0.6,0,0.8,0.3,0.8,1.2c0,1.1-0.5,2.1-1.5,2.9
		c-1.1,0.9-2.7,1.4-4.6,1.4c-2.9,0-4.6-0.9-5.5-2.3C95.5,126.1,93.6,127.1,91.1,127.1z M95.8,117.9c-0.3,0-0.8-0.1-1.4-0.1
		c-1.6,0-2.6,0.8-2.6,2.2s1,2.2,2.4,2.2c0.6,0,1.2-0.2,1.6-0.6V117.9z"/>
	<path class="st1" d="M119.7,119.9c0,1.6,0,2.6,0,3.7c0,0.8,0,1.5,0,2c0,0.6-0.3,0.9-1,1c-0.9,0.2-2,0.2-2.9,0.2h-1.6
		c-3.1,0-3.8-0.7-3.8-2.7v-21.4c0-1.5,0-2.5,0-3.7c0-0.8,0-1.5,0-1.9c0-0.6,0.3-0.9,1-1c0.9-0.1,2-0.2,2.9-0.2h1.7
		c3.1,0,3.8,0.6,3.8,2.7V119.9z"/>
	<path class="st1" d="M137.1,123.8c-1.4,2.2-3.6,3.3-6.5,3.3c-4.4,0-7.1-2.3-7.1-7.8v-12.1c0-0.8-0.1-1.5-0.1-2c0-0.6,0.3-0.9,1-1
		c0.8-0.1,2-0.2,2.9-0.2h1.7c3.1,0,3.8,1,3.8,3v10.6c0,1.8,0.6,2.5,1.9,2.5c0.9,0,1.5-0.2,1.8-0.5v-12.5c0-0.8,0-1.5,0-2
		c0-0.6,0.3-0.9,1-1c0.8-0.1,2-0.2,2.9-0.2h1.6c3.1,0,3.8,0.8,3.8,2.9v10c0,1.8,0,2.7,0,2.7c0,1.5,0,2.9,0.1,4.1c0,0.7,0,1.4,0,1.8
		c0,0.7-0.2,1-1,1.1c-0.7,0.1-1.8,0.1-3.1,0.1h-1.8c-1.8,0-2.5-0.3-2.8-1.5L137.1,123.8z"/>
	<path class="st1" d="M163.3,99c0-0.8,0-1.5,0-1.9c0-0.6,0.3-0.9,1-1c0.9-0.1,1.6-0.2,2.6-0.2h2.2c3.1,0,3.5,0.6,3.5,2.7v21
		c0,1.5,0,2.9,0.1,4.1c0,0.7,0,1.4,0,1.8c0,0.7-0.2,1-1,1.1c-0.7,0.1-1.8,0.1-3.1,0.1h-1.8c-1.8,0-2.5-0.3-2.8-1.5l-0.3-1.1
		c-1.2,1.9-3.1,3-6.2,3c-4.9,0-8.7-4-8.7-11.6c0-8,4.3-11.9,9.5-11.9c2.1,0,3.9,0.8,4.8,1.7V99z M161.4,109.5c-2.3,0-3,2.4-3,5.6
		c0,3.9,0.9,5.8,3.1,5.8c0.7,0,1.4-0.2,1.7-0.5v-10.5C162.7,109.6,162.1,109.5,161.4,109.5z"/>
	<path class="st1" d="M182,127.8c-3.4,0-4.9-2-4.9-5s1.6-5,5.2-5h0.2c3.6,0,4.9,2,4.9,5s-1.5,5-5.2,5H182z"/>
</g>
</svg>
