<svg id="Layer_1" xmlns="http://www.w3.org/2000/svg" viewBox="0 0 317.5 130"><style>.st0{fill:#008071}.st1{fill:#6ecce0}</style><path class="st0" d="M24.2 15.1c-1.8-3.4-3.6-5-5.9-5-.5 0-1 .1-1.4.2-1.7.5-3.5 2.3-3.5 7 0 5.5 2.5 8.7 7.7 8.7 2.3 0 4.6-.6 6.3-1.6.6-.3 1-.5 1.4-.5.7 0 1.8.4 1.8 2.5 0 1.8-.9 3.5-2.1 4.7-1.9 1.7-4.9 3.2-9.7 3.2-8.7 0-15-4.8-15-15.4C3.7 9.4 9.9 3.3 19 3.3c6.9 0 11.3 2.9 11.3 7.3 0 3.8-2.4 5.7-4.3 5.7-.9-.1-1.3-.2-1.8-1.2zM42.7 26.9v5.6c0 .6-.3.9-1 1-.9.2-2 .2-2.9.2h-1.6c-3.1 0-3.8-.6-3.8-2.7V9.7 6 4c0-.6.3-.9 1-1 .9-.1 2-.2 2.9-.2H39c3.1 0 3.8.7 3.8 2.7v21.4zM58.8 10.6c6.7 0 11.7 3.8 11.7 11.6 0 3.9-1.5 7-3.8 9-2.2 2-5.3 2.9-8.8 2.9-6.7 0-11.8-3.9-11.8-11.7 0-7.6 5.4-11.8 12.7-11.8zm2.2 14c0-.7-.1-1.7-.2-2.9-.5-3.1-1.3-5-2.9-5-.1 0-.5 0-.8.1-1 .4-1.5 1.6-1.5 3.3 0 .8.1 1.8.2 2.7.5 3.3 1.5 5.3 3.1 5.3h.6c1.1-.3 1.5-1.6 1.5-3.5zM84.4 33.7c-1 0-2-.1-2.7-.2-2.2-.3-3-1.3-4.1-3.7-1.8-4.2-3.8-10.3-5.2-14.9-.4-1.3-.6-2.4-.6-2.9s.3-.8 1-.9c.8-.1 1.5-.1 2.7-.1h1c.9 0 2.1 0 2.7.1 1.2.1 2 .5 2.2 1.8.8 4.3 1.7 8.8 2.7 12.3h.3c1-3.6 1.9-8 2.8-12.7.2-.9.5-1.2 1.2-1.3.5-.1 2.2-.1 3.2-.1h.8c.8 0 2 0 2.6.1 1.2.1 1.6.6 1.6 1.5 0 .7-.4 2.1-1 4-1.1 3.8-3.3 9.9-5.9 15.4-.4.9-.9 1.3-1.8 1.5-.6.1-2 .4-3 .4h-.5zM118.8 26.6c.6 0 1 .4 1 1.1 0 1.2-.6 2.4-1.3 3.1-1.7 2-4.2 3.3-8.7 3.3-6.8 0-11.8-3.9-11.8-11.5 0-7.5 4.5-12 11.7-12 6.2 0 10.2 3.6 10.2 10.2 0 .4 0 .9-.1 1.4 0 1-.4 1.2-1.2 1.3-2.6.1-7.1.1-11.1.1.9 2.4 3.4 3.3 7 3.3 1.7 0 3.5-.3 4.3-.3zm-7-9.5c-.6-.9-1.4-1.4-2.2-1.4h-.6c-1.5.4-2 2-2 3.8h5.7c-.2-.9-.5-1.8-.9-2.4zM131.7 14.1h.1c1.6-2.5 3.2-3.5 5.3-3.5 1.8 0 3.3 1.1 3.3 4.4 0 .9-.1 1.9-.4 2.7-.2.9-.7 1.1-1.3 1.1-.2 0-.5-.1-.9-.1-.7-.1-2-.2-2.8-.2-.8 0-1.8.1-2.9.3v13.9c0 .6-.3.9-1 1-.9.2-2 .2-2.9.2h-1.6c-3.1 0-3.8-.6-3.8-2.7v-17-2c0-.6.3-.9 1-1 .9-.1 2-.2 2.9-.2h1.4c2.5 0 3 .4 3.3 1.9l.3 1.2z"/><path class="st1" d="M9 51.9c-3.5 0-4.9-1.6-4.9-4.4s1.8-4.2 5.2-4.2h.1c3.4 0 4.9 1.5 4.9 4.2s-1.8 4.4-5.2 4.4H9zm4.6 4.8c0-2.1-.7-2.7-3.8-2.7H8.1c-.9 0-2.1 0-2.9.2-.7.1-1 .4-1 1v18.9c0 2.1.8 2.7 3.9 2.7h1.6c.9 0 2 0 2.9-.2.7-.1 1-.4 1-1v-2V56.7zM26.8 71.6c1.6 0 2.1-.7 2.1-1.5 0-1.1-1.9-1.6-4-2.1-3.3-.9-7.5-2-7.5-7.1 0-4.6 4-7.3 10.2-7.3 3.2 0 8.8.5 8.8 4.4 0 1.4-.6 2.7-1.9 3.5-.4.2-1 .4-1.4.4s-.7-.2-1.2-.8c-1.5-1.5-2.3-2.1-4-2.1-1.1 0-1.7.6-1.7 1.3 0 1.3 2.2 1.8 4.7 2.5 3.1.9 6.5 2.2 6.5 6.2 0 4.6-3.4 8.1-10.6 8.1-5.5 0-10.2-1.6-10.2-5.2 0-1.5.6-2.8 1.5-3.7.3-.3.8-.5 1.2-.5.3 0 .6.1.9.4 2.4 2.6 4.6 3.5 6.6 3.5zM58.7 69h.3c.9-3.7 1.5-7.1 1.9-9.3.4-1.8.6-3.5.8-4.8.1-.6.5-.8 1.1-.8 1-.1 2.1-.1 3.2-.1h.4c.8 0 2 0 2.6.1 1.4.1 1.9.6 1.9 1.5 0 .4-.1 1-.3 1.6-1.4 5.8-3 10.8-4.7 15.4-3.6 9.9-6.4 14-13.1 14-4.6 0-7.4-2.1-7.4-5.5 0-1.1.5-1.7 1.1-1.7.5 0 .9.2 1.4.2.9.1 1.8.2 2.5.2 2.8 0 5.3-1.1 6.6-3.2-2.4-.4-4.1-1.5-5.5-5-1.3-3-3.1-8.9-4.5-14-.4-1.6-.6-2.2-.6-2.9 0-.4.4-.6.8-.7.8-.1 2.6-.1 3.5-.1h.6c.9 0 1.9 0 2.5.1 1.2.1 1.9.5 2.1 1.8.8 4.7 1.7 9.3 2.8 13.2zM85 53.6c6.7 0 11.7 3.8 11.7 11.6 0 3.9-1.5 7-3.8 9-2.2 2-5.3 2.9-8.8 2.9-6.7 0-11.8-3.9-11.8-11.7 0-7.6 5.5-11.8 12.7-11.8zm2.2 14c0-.7-.1-1.7-.2-2.9-.5-3.1-1.3-5-2.9-5-.1 0-.5 0-.8.1-1 .4-1.5 1.6-1.5 3.3 0 .8.1 1.8.2 2.7.5 3.3 1.5 5.3 3.1 5.3h.6c1.1-.3 1.5-1.6 1.5-3.5zM113.2 73.8c-1.4 2.2-3.6 3.3-6.5 3.3-4.4 0-7.1-2.4-7.1-7.8V57.2c0-.8-.1-1.5-.1-2 0-.6.3-.9 1-1 .8-.1 2-.2 2.9-.2h1.6c3.1 0 3.8.9 3.8 3v10.6c0 1.9.6 2.5 1.9 2.5.9 0 1.5-.2 1.8-.4V57.2v-2c0-.6.3-.9 1-1 .8-.1 2-.2 2.9-.2h1.6c3.1 0 3.8.8 3.8 2.9v12.7c0 1.5 0 2.9.1 4.1v1.9c0 .7-.2 1-1 1.1-.7.1-1.8.1-3.1.1H116c-1.8 0-2.5-.4-2.8-1.5v-1.5zM134.4 57.1h.1c1.6-2.5 3.2-3.5 5.3-3.5 1.8 0 3.3 1.1 3.3 4.4 0 .9-.1 1.9-.4 2.7-.2.9-.7 1.1-1.3 1.1-.2 0-.5-.1-.8-.1-.7-.1-2.1-.2-2.8-.2-.8 0-1.8.1-2.9.3v13.9c0 .6-.3.9-1 1-.9.2-2 .2-2.9.2h-1.6c-3.1 0-3.8-.6-3.8-2.7v-17-2c0-.6.3-.9 1-1 .9-.1 2-.2 2.9-.2h1.4c2.5 0 3 .4 3.3 1.9l.2 1.2zM161.6 55.7l.2 1.1c1.5-2 4-3.2 6.6-3.2 4.9 0 8.2 4 8.2 11.2 0 7.5-3.6 12.3-9.2 12.3-1.9 0-3.9-.4-5.1-1.3v8.5c0 .6-.3.9-1 1-.9.1-2 .2-2.9.2h-1.6c-3.1 0-3.8-.6-3.8-2.7V57.2v-2c0-.6.3-.9 1-1 .9-.1 2-.2 2.9-.2h1.4c2.5 0 3 .4 3.3 1.7zm.7 15.3c.6.2 1.4.4 2 .4 2.3 0 2.8-2.4 2.8-5.9 0-3.5-.8-5.3-2.6-5.3-1 0-1.7.2-2.3.7.1.3.1.8.1 1.1v9zM186.3 77.1c-3.9 0-7.3-2.3-7.3-6.8 0-5 3.3-6.7 8.9-6.7 1.3 0 2.4.1 3.1.2v-.6c0-1.6-1.4-2.4-4.3-2.4-1.2 0-3 .2-4.2.6-.4.1-.8.2-1.2.2-.9 0-1.2-.9-1.2-2.1 0-1.6.7-3 2.1-4.1 1.7-1.3 4.7-2.1 8.1-2.1 3.5 0 6.2.8 7.8 2.6 1.5 1.7 2.2 3.8 2.2 7.3v5.7c0 1.5.5 2.3 1.9 2.5.5.1.8.4.8 1.2 0 1.1-.5 2.1-1.5 2.9-1.2 1-2.7 1.5-4.5 1.5-2.9 0-4.6-.9-5.5-2.4-.9 1.5-2.7 2.5-5.2 2.5zm4.7-9.2c-.3 0-.8-.1-1.5-.1-1.6 0-2.6.8-2.6 2.3 0 1.5 1 2.1 2.4 2.1.6 0 1.2-.2 1.6-.6v-3.7zM214.1 57.1c1.7-2.5 3.4-3.5 5.4-3.5 1.8 0 3.3 1.1 3.3 4.4 0 .9-.1 1.9-.3 2.7-.2.9-.7 1.1-1.3 1.1-.2 0-.6-.1-.9-.1-.7-.1-2-.2-2.8-.2-.8 0-1.8.1-2.9.3v13.9c0 .6-.3.9-1 1-.8.2-2 .2-2.9.2H209c-3.1 0-3.8-.6-3.8-2.7v-17c0-.8-.1-1.5-.1-2 0-.6.3-.9 1-1 .9-.1 2-.2 2.9-.2h1.4c2.5 0 3 .4 3.3 1.9l.4 1.2zM237.3 65.1c0 2.2 0 4 1 4.8.7.6 1.9.9 3.5.9.5 0 .9-.1 1.4-.1.8 0 1.1.5 1.1 1.2 0 3.3-2.9 5.1-7.5 5.1-6.5 0-8.8-3-8.7-9.2l.1-7.3h-2.8c-.8 0-1.1-.4-1.1-1.2 0-1.2.1-2.4.4-3 .2-.5.6-1 1.2-1.6l5.8-5c.7-.6 1.2-.9 2.1-1 .8-.1 1.7-.1 2.5-.1.5.1.9.2.9 1v4.5h6.2c.6 0 .9.1 1 .8v1.8c0 1 0 1.8-.4 2.5-.5 1-1.2 1.2-2.4 1.2h-4.4v4.7zM256.7 73.6c0 .8.1 1.5.1 2 0 .6-.3.9-1 1-.8.2-2 .2-2.9.2h-1.7c-3.1 0-3.8-.6-3.8-2.7V57.2c0-.8-.1-1.5-.1-2 0-.6.3-.9 1-1 .9-.1 2-.2 2.9-.2h1.4c2.5 0 3.1.4 3.3 1.7l.2 1.1c1.9-2.1 4.6-3.2 7.3-3.2 3.2 0 5.2 1.1 6.1 3.3.5 1.3.7 3.1.7 5.9v10.9c0 .8.1 1.5.1 2 0 .6-.3.9-1 1-.8.2-2 .2-2.9.2h-1.7c-3.1 0-3.8-.6-3.8-2.7V63.9c0-2.9-.6-3.7-2.2-3.7-.8 0-1.5.2-2.2.5v12.9zM293.9 69.6c.6 0 1 .4 1 1.1 0 1.2-.6 2.4-1.3 3.1-1.7 2-4.2 3.3-8.7 3.3-6.7 0-11.7-3.9-11.7-11.5 0-7.5 4.5-12 11.7-12 6.2 0 10.2 3.6 10.2 10.2v1.4c-.1 1-.4 1.2-1.2 1.3-2.6.1-7.1.1-11.1.1 1 2.4 3.3 3.3 7 3.3 1.5 0 3.4-.3 4.1-.3zm-7-9.5c-.5-.9-1.4-1.4-2.2-1.4h-.6c-1.5.4-2 2-2 3.8h5.7c-.2-.9-.5-1.8-.9-2.4zM306.9 57.1c1.7-2.5 3.4-3.5 5.4-3.5 1.8 0 3.3 1.1 3.3 4.4 0 .9-.1 1.9-.3 2.7-.2.9-.7 1.1-1.3 1.1-.2 0-.6-.1-.9-.1-.7-.1-2-.2-2.8-.2-.8 0-1.8.1-2.9.3v11.9c0 .8.1 1.5.1 2 0 .6-.3.9-1 1-.8.2-2 .2-2.9.2h-1.7c-3.1 0-3.8-.6-3.8-2.7v-17c0-.8-.1-1.5-.1-2 0-.6.3-.9 1-1 .9-.1 2-.2 2.9-.2h1.4c2.5 0 3 .4 3.3 1.9l.3 1.2zM9 101.9c-3.5 0-4.9-1.6-4.9-4.3s1.8-4.3 5.2-4.3h.1c3.4 0 4.9 1.6 4.9 4.3s-1.8 4.3-5.2 4.3H9zm4.6 4.8c0-2.1-.7-2.7-3.8-2.7H8.1c-.9 0-2.1 0-2.9.2-.7.1-1 .4-1 1v18.9c0 2 .8 2.7 3.9 2.7h1.6c.9 0 2 0 2.9-.2.7-.1 1-.4 1-1v-2-16.9zM27 123.6v2c0 .6-.3.9-1 1-.9.2-2 .2-2.9.2h-1.6c-3.1 0-3.8-.7-3.8-2.7v-16.9-2c0-.6.3-.9 1-1 .9-.2 2-.2 2.9-.2H23c2.5 0 3.1.4 3.4 1.7l.2 1c1.9-2 4.5-3.2 7.3-3.2 3.2 0 5.2 1.1 6.1 3.3.5 1.3.7 3.2.7 5.9v12.9c0 .6-.3.9-1 1-.9.2-2 .2-2.9.2H35c-3.1 0-3.8-.7-3.8-2.7v-10.2c0-2.9-.6-3.7-2.1-3.7-.8 0-1.5.2-2.2.5.1.3.1.6.1.8v12.1zM61 106.3c1.8-1.8 4.3-2.7 6.8-2.7 3.2 0 5.2 1.1 6.1 3.3.5 1.3.7 3.2.7 5.9v12.9c0 .6-.3.9-1 1-.9.2-2 .2-2.9.2h-1.6c-3.1 0-3.8-.7-3.8-2.7V114c0-2.9-.6-3.7-2.1-3.7-.8 0-1.5.2-2.1.5v14.9c0 .6-.3.9-1 1-.9.2-2 .2-2.9.2h-1.6c-3.1 0-3.8-.7-3.8-2.7V99v-1.9c0-.6.3-.9 1-1 .9-.1 2-.2 2.9-.2h1.7c3.1 0 3.8.6 3.8 2.7v7.7zM98.3 119.6c.6 0 1 .3 1 1.2 0 1.2-.6 2.3-1.3 3.1-1.7 2-4.2 3.2-8.7 3.2-6.7 0-11.7-3.8-11.7-11.5 0-7.5 4.5-12 11.7-12 6.2 0 10.2 3.6 10.2 10.2 0 .5 0 .9-.1 1.4 0 1-.4 1.2-1.2 1.3-2.6.2-7.1.2-11.1.1.9 2.4 3.4 3.3 7 3.3 1.6 0 3.5-.3 4.2-.3zm-7-9.5c-.6-.9-1.4-1.3-2.2-1.3h-.6c-1.5.3-2 2-2 3.8 1.8 0 3.9 0 5.7-.1-.2-.9-.5-1.8-.9-2.4zM109 127.1c-3.9 0-7.3-2.3-7.3-6.8 0-5 3.2-6.7 8.9-6.7 1.3 0 2.4.1 3.1.2v-.5c0-1.6-1.4-2.4-4.3-2.4-1.2 0-2.9.2-4.2.6-.4.1-.8.2-1.2.2-.9 0-1.2-.8-1.2-2 0-1.6.7-3 2.1-4 1.6-1.3 4.7-2.2 8.1-2.2 3.5 0 6.2.8 7.8 2.5 1.6 1.7 2.2 3.8 2.2 7.3v5.7c0 1.5.5 2.3 1.9 2.5.6 0 .8.3.8 1.2 0 1.1-.5 2.1-1.5 2.9-1.1.9-2.7 1.4-4.6 1.4-2.9 0-4.6-.9-5.5-2.3-.7 1.4-2.5 2.4-5.1 2.4zm4.7-9.2c-.3 0-.8-.1-1.4-.1-1.6 0-2.6.8-2.6 2.2s1 2.2 2.4 2.2c.6 0 1.2-.2 1.6-.6v-3.7zM137.7 119.9v5.7c0 .6-.3.9-1 1-.9.2-2 .2-2.9.2h-1.6c-3.1 0-3.8-.7-3.8-2.7v-21.4V99v-1.9c0-.6.3-.9 1-1 .9-.1 2-.2 2.9-.2h1.7c3.1 0 3.8.6 3.8 2.7v21.3zM152.8 115.1c0 2.2 0 4 1 4.8.7.7 1.9.9 3.5.9h1.4c.8-.1 1.1.4 1.1 1.2 0 3.2-3 5.1-7.5 5.1-6.5 0-8.8-3-8.7-9.2l.1-7.3H141c-.8 0-1.1-.4-1.1-1.2 0-1.2.1-2.4.4-3 .2-.5.6-1 1.2-1.6l5.8-5c.6-.6 1.2-.9 2.1-1 .9-.1 1.6-.1 2.5 0 .6 0 .9.1.9 1v4.5h6.2c.6 0 .9.1.9.8.1.5.1 1.3.1 1.8 0 .9-.1 1.8-.4 2.5-.5 1-1.3 1.2-2.4 1.2h-4.4v4.5zM172.2 106.3c1.8-1.8 4.3-2.7 6.8-2.7 3.3 0 5.2 1.1 6.1 3.3.5 1.3.7 3.2.7 5.9v12.9c0 .6-.3.9-1 1-.8.2-2 .2-2.9.2h-1.6c-3.1 0-3.8-.7-3.8-2.7V114c0-2.9-.6-3.7-2.2-3.7-.8 0-1.5.2-2.1.5v14.9c0 .6-.3.9-1 1-.9.2-2 .2-2.9.2h-1.7c-3.1 0-3.8-.7-3.8-2.7V99v-1.9c0-.6.3-.9 1-1 .9-.1 2-.2 2.9-.2h1.6c3.1 0 3.8.6 3.8 2.7v7.7zM195 127.8c-3.4 0-4.9-2-4.9-5s1.6-5 5.2-5h.2c3.6 0 4.9 2 4.9 5s-1.5 5-5.2 5h-.2z"/></svg>