<svg xmlns="http://www.w3.org/2000/svg" xmlns:xlink="http://www.w3.org/1999/xlink" viewBox="0 0 200 72">
<path fill="#0d6d5e" d="M34.49 26.64C37.22 26.64 40.68 23.90 40.68 18.50C40.68 12.17 34.27 7.99 24.41 7.99C11.30 7.99 2.45 16.78 2.45 30.38C2.45 45.65 11.52 52.49 23.98 52.49C30.89 52.49 35.21 50.47 37.87 47.95C39.74 46.22 40.97 43.78 40.97 41.26C40.97 38.30 39.38 37.73 38.38 37.73C37.73 37.73 37.15 37.94 36.36 38.38C33.91 39.82 30.60 40.68 27.36 40.68C19.94 40.68 16.34 36.14 16.34 28.22C16.34 21.46 19.01 18.86 21.38 18.14C22.03 17.93 22.75 17.86 23.40 17.86C26.71 17.86 29.30 20.16 31.90 24.98C32.69 26.42 33.26 26.64 34.49 26.64ZM58.61 11.30C58.61 8.35 57.60 7.42 53.14 7.42L50.76 7.42C49.46 7.42 47.81 7.49 46.58 7.70C45.58 7.85 45.14 8.28 45.14 9.14C45.14 9.79 45.22 10.80 45.22 11.95C45.22 13.54 45.22 14.98 45.22 17.21L45.22 47.95C45.22 50.90 46.22 51.84 50.69 51.84L53.06 51.84C54.36 51.84 56.02 51.77 57.24 51.55C58.25 51.41 58.68 50.98 58.68 50.11C58.68 49.46 58.61 48.46 58.61 47.30C58.61 45.72 58.61 44.28 58.61 42.05ZM63.50 35.57C63.50 46.80 70.78 52.34 80.42 52.34C85.39 52.34 89.78 50.98 93.02 48.17C96.41 45.29 98.50 40.82 98.50 35.21C98.50 23.98 91.30 18.50 81.72 18.50C71.35 18.50 63.50 24.55 63.50 35.57ZM82.73 43.63C82.44 43.70 82.08 43.70 81.79 43.70C79.49 43.70 78.12 40.82 77.40 36.14C77.18 34.78 77.11 33.48 77.11 32.26C77.11 29.81 77.83 28.15 79.27 27.58C79.78 27.36 80.21 27.36 80.42 27.36C82.80 27.36 83.95 30.10 84.60 34.56C84.82 36.22 84.96 37.66 84.96 38.66C84.96 41.40 84.38 43.27 82.73 43.63ZM120.46 51.84C121.90 51.84 123.84 51.55 124.70 51.34C125.93 51.05 126.65 50.47 127.22 49.25C130.90 41.40 133.99 32.62 135.65 27.14C136.44 24.48 137.02 22.46 137.02 21.46C137.02 20.09 136.44 19.44 134.78 19.30C133.92 19.22 132.19 19.15 131.11 19.15L130.03 19.15C128.52 19.15 126.07 19.30 125.35 19.37C124.34 19.51 123.84 19.87 123.55 21.24C122.26 28.08 120.96 34.42 119.52 39.53L119.09 39.53C117.72 34.42 116.42 27.94 115.27 21.82C114.91 20.02 113.76 19.44 112.03 19.30C111.17 19.22 109.51 19.15 108.22 19.15L106.70 19.15C104.90 19.15 103.90 19.22 102.82 19.37C101.88 19.51 101.45 19.87 101.45 20.59C101.45 21.38 101.81 22.90 102.38 24.77C104.40 31.32 107.28 40.18 109.80 46.15C111.31 49.68 112.46 51.12 115.63 51.55C116.71 51.70 118.15 51.84 119.52 51.84ZM163.01 41.98C157.75 41.98 154.30 40.68 152.93 37.22C158.69 37.30 165.17 37.30 168.84 37.08C169.99 37.01 170.50 36.58 170.57 35.21C170.64 34.49 170.64 33.84 170.64 33.19C170.64 23.69 164.95 18.50 156.02 18.50C145.66 18.50 139.25 25.06 139.25 35.78C139.25 46.80 146.45 52.34 156.10 52.34C162.50 52.34 166.18 50.47 168.62 47.66C169.56 46.58 170.50 44.93 170.50 43.20C170.50 42.05 169.92 41.54 169.06 41.54C167.98 41.54 165.31 41.98 163.01 41.98ZM160.20 31.39C157.61 31.46 154.58 31.46 152.06 31.46C152.06 28.80 152.71 26.50 154.87 25.99C155.23 25.92 155.45 25.92 155.74 25.92C157.03 25.92 158.18 26.57 158.98 27.86C159.55 28.73 159.98 30.02 160.20 31.39ZM187.42 21.89C187.06 19.73 186.34 19.15 182.66 19.15L180.65 19.15C179.35 19.15 177.70 19.22 176.47 19.44C175.46 19.58 175.03 20.02 175.03 20.88C175.03 21.53 175.10 22.54 175.10 23.69L175.10 47.95C175.10 50.90 176.11 51.84 180.58 51.84L182.95 51.84C184.25 51.84 185.90 51.77 187.13 51.55C188.14 51.41 188.57 50.98 188.57 50.11C188.57 49.46 188.50 48.46 188.50 47.30L188.50 30.17C190.01 29.88 191.45 29.74 192.60 29.74C193.68 29.74 195.62 29.88 196.63 30.02C197.06 30.10 197.50 30.17 197.86 30.17C198.72 30.17 199.37 29.88 199.73 28.66C200.09 27.50 200.23 26.06 200.23 24.77C200.23 20.09 198.07 18.50 195.48 18.50C192.53 18.50 190.08 19.94 187.85 23.54C187.85 23.54 187.70 23.54 187.70 23.54Z"/>
</svg>
